<?xml version="1.0" standalone="no"?>
<!DOCTYPE svg PUBLIC "-//W3C//DTD SVG 20010904//EN"
 "http://www.w3.org/TR/2001/REC-SVG-20010904/DTD/svg10.dtd">
<svg version="1.0" xmlns="http://www.w3.org/2000/svg"
 width="500.000000pt" height="500.000000pt" viewBox="0 0 500.000000 500.000000"
 preserveAspectRatio="xMidYMid meet">

<g transform="translate(0.000000,500.000000) scale(0.100000,-0.100000)"
fill="#000000" stroke="none">
<path d="M4635 3238 c-16 -6 -45 -21 -62 -35 l-33 -24 0 26 0 26 -72 -7 c-40
-3 -76 -9 -80 -13 -9 -8 -62 -570 -55 -577 3 -4 39 -3 80 0 l74 7 17 187 c18
201 35 273 69 297 27 19 42 19 61 -1 20 -19 21 -95 4 -230 -18 -150 13 -213
109 -221 94 -8 170 58 207 180 14 46 14 47 -8 47 -18 0 -25 -9 -34 -38 -20
-67 -77 -97 -114 -60 -16 16 -19 28 -15 57 3 20 11 88 18 152 11 99 10 122 -2
154 -24 65 -97 97 -164 73z"/>
<path d="M2176 3184 c-27 -7 -52 -17 -56 -21 -4 -4 -19 -135 -34 -291 -15
-155 -34 -303 -43 -327 -16 -48 -44 -75 -79 -75 -39 0 -47 23 -40 110 3 44 9
115 12 158 8 98 -6 146 -50 173 -54 33 -138 18 -195 -34 l-24 -22 5 28 c5 26
4 27 -36 26 -22 0 -59 -3 -81 -7 l-40 -7 -27 -270 c-15 -149 -27 -280 -27
-293 -1 -23 0 -23 72 -16 39 3 75 9 79 13 4 3 16 94 27 201 23 240 43 297 103
288 44 -6 50 -43 34 -191 -19 -177 -8 -230 58 -261 47 -22 115 -12 166 25 l40
29 0 -25 c0 -21 4 -25 23 -21 12 3 48 8 80 11 50 6 57 9 57 28 1 70 40 389 50
409 29 55 70 74 98 46 15 -15 15 -110 1 -234 -10 -83 -9 -101 6 -140 20 -52
54 -74 114 -74 51 0 89 15 125 48 l29 27 -7 -29 -7 -29 78 7 c43 4 80 11 83
16 3 5 14 92 23 192 20 205 30 248 63 279 30 29 71 20 80 -18 4 -15 1 -89 -6
-164 -15 -159 -10 -195 29 -233 59 -57 155 -43 220 31 l41 46 22 -28 c26 -33
79 -57 113 -50 14 3 36 7 49 10 14 3 38 17 56 31 34 29 45 27 37 -8 -4 -14
-24 -32 -52 -47 -25 -13 -61 -41 -80 -63 -29 -32 -35 -46 -35 -84 0 -25 5 -54
10 -65 28 -51 128 -64 201 -26 60 32 97 105 106 205 6 70 7 73 40 88 18 9 51
37 73 61 l39 44 17 -26 c48 -73 162 -73 243 -1 l24 21 -6 -35 c-11 -63 -30
-301 -25 -306 4 -4 146 42 155 50 6 5 85 828 80 833 -3 2 -40 2 -81 -2 -63 -6
-76 -10 -76 -25 0 -16 -2 -16 -38 1 -34 17 -46 18 -90 9 -128 -28 -222 -186
-223 -375 -1 -86 -12 -119 -58 -167 -48 -51 -64 -50 -56 5 8 61 45 448 45 475
0 21 -3 22 -57 16 -92 -9 -103 -12 -103 -34 0 -20 0 -20 -20 0 -30 30 -102 27
-165 -8 -99 -55 -153 -163 -165 -332 -4 -58 -11 -113 -15 -123 -15 -37 -82
-50 -105 -22 -11 13 -11 38 -1 133 7 64 14 127 17 139 8 40 -16 122 -42 142
-54 42 -144 33 -201 -21 l-23 -21 0 27 0 28 -77 -7 c-43 -4 -79 -8 -80 -9 -1
-1 -11 -89 -21 -196 -21 -206 -34 -258 -76 -285 -33 -22 -58 -16 -73 16 -10
21 -9 50 3 152 20 153 14 209 -26 249 -24 23 -37 28 -80 28 -57 0 -81 -10
-124 -49 l-28 -26 5 45 c4 25 9 79 12 120 3 41 8 85 11 98 4 19 0 22 -23 21
-16 -1 -50 -8 -77 -15z m1934 -79 c19 -23 -13 -331 -38 -365 -52 -70 -115 -57
-128 26 -9 61 2 168 23 234 30 92 107 149 143 105z m-586 -61 c19 -19 19 -33
1 -202 -15 -146 -32 -190 -79 -207 -54 -19 -86 27 -86 125 0 131 48 261 105
286 39 17 41 17 59 -2z m-40 -621 c-14 -77 -41 -111 -78 -97 -39 15 -28 63 25
108 45 38 62 35 53 -11z"/>
<path d="M486 3001 c-38 -9 -73 -24 -77 -32 -4 -8 -19 -138 -34 -289 -14 -152
-30 -292 -35 -312 -12 -42 -61 -88 -95 -88 -47 0 -49 16 -31 208 22 230 19
220 59 224 24 2 33 8 35 26 3 19 -1 22 -33 22 l-36 0 5 45 c3 25 9 65 12 90 6
52 7 51 -79 28 -79 -21 -87 -28 -87 -72 0 -68 -11 -109 -31 -114 -23 -6 -26
-47 -4 -47 19 0 19 -6 -1 -221 -20 -208 -14 -247 46 -287 29 -20 42 -22 80
-17 53 8 85 23 123 59 l27 25 0 -33 0 -32 78 9 c42 5 78 9 79 10 0 1 9 83 18
182 9 99 21 198 27 219 12 50 58 97 86 89 37 -9 42 -68 22 -238 -8 -67 -8
-105 0 -134 30 -113 178 -125 261 -21 l33 41 20 -27 c45 -61 141 -67 216 -13
48 35 46 46 25 -151 -8 -74 -15 -140 -15 -147 0 -8 26 -3 78 14 42 14 79 28
82 30 7 6 87 834 80 837 -14 9 -146 -15 -155 -28 -9 -12 -13 -12 -30 0 -43 32
-147 5 -208 -54 -73 -70 -117 -193 -117 -327 0 -77 -15 -110 -56 -125 -30 -12
-53 -3 -64 24 -4 13 -1 79 8 157 8 74 12 151 8 171 -20 108 -139 137 -231 57
-19 -17 -35 -27 -35 -23 0 10 16 163 25 237 3 26 2 47 -2 46 -4 0 -39 -8 -77
-18z m761 -218 c9 -24 -17 -303 -32 -339 -25 -61 -92 -84 -119 -41 -47 75 -14
300 56 374 26 28 85 32 95 6z"/>
<path d="M3130 2104 c-25 -2 -108 -9 -185 -15 -233 -18 -427 -49 -684 -110
-147 -35 -461 -136 -461 -149 0 -23 32 -17 189 34 266 88 526 145 831 183 116
14 220 18 515 18 343 0 381 -2 525 -24 187 -30 215 -31 215 -11 0 16 -120 39
-320 59 -112 12 -543 22 -625 15z"/>
</g>
</svg>
